<svg xmlns="http://www.w3.org/2000/svg" viewBox="0 0 396 276"><defs><path id="a" d="M0 100.155h199.397V0H0z"/></defs><g fill="none" fill-rule="evenodd"><path d="M100.078 101.89C43.74 63.45-13.97 122.59 9.187 179.905c15.667 38.777 61.882 52.273 96.648 62.473 36.16 10.595 45.705 12.135 58.018 17.362 5.227-12.314 10.496-20.374 29.68-52.793 18.487-31.221 41.618-73.731 25.954-112.5-22.986-56.893-105.585-59.343-119.41 7.443" fill="#000" opacity=".18"/><path d="M295.009 101.583c-13.824-66.786-96.419-64.333-119.576-7.018-15.667 38.777 8.203 80.588 26.126 112.077 18.651 32.74 24.447 40.478 29.674 52.791 12.314-5.227 21.703-7.365 58.023-17.36 34.986-9.615 81.155-24.126 96.818-62.895 22.987-56.893-34.728-116.034-91.065-77.595" fill="#000" opacity=".18"/><path d="M197.653 41.52C146.431-35.3 44 9.665 44 93.352c0 56.62 51.166 96.997 89.632 127.432 40.017 31.637 51.216 38.41 64.021 51.216 12.806-12.805 23.507-20.251 64.028-51.216 39.039-29.813 89.632-71.442 89.632-128.048 0-83.071-102.438-128.037-153.66-51.216" fill="#FFF"/><text xmlns="http://www.w3.org/2000/svg" font-family="HelveticaNeue-Bold, Helvetica Neue" font-size="20" font-weight="bold" fill="#ff7716" transform="translate(-38 75)"><tspan x="151.014" y="67">Adopt, Don’t Shop</tspan></text><text font-family="HelveticaNeue-Bold, Helvetica Neue" font-size="14" font-weight="bold" fill="#91288e" transform="translate(-30 50)"><tspan x="151.014" y="67">ThePetNest Foundation</tspan></text></g></svg>